<svg width="33" height="16" viewBox="0 0 33 16" fill="none" xmlns="http://www.w3.org/2000/svg">
<path d="M0.892897 7.84207C0.343789 7.90122 -0.0533992 8.39432 0.00575206 8.94342C0.0649033 9.49253 0.557995 9.88972 1.1071 9.83057L0.892897 7.84207ZM32.6238 9.78155C33.0555 9.437 33.1261 8.80779 32.7815 8.37615L27.1669 1.34224C26.8224 0.910607 26.1932 0.840003 25.7615 1.18455C25.3299 1.52909 25.2593 2.1583 25.6038 2.58994L30.5946 8.8423L24.3422 13.8331C23.9106 14.1776 23.84 14.8068 24.1845 15.2385C24.5291 15.6701 25.1583 15.7407 25.5899 15.3962L32.6238 9.78155ZM1.1071 9.83057C4.12992 9.50494 11.6177 8.88806 17.3893 9.01759L17.4342 7.01809C11.5353 6.88571 3.94851 7.51292 0.892897 7.84207L1.1071 9.83057ZM17.3893 9.01759C23.1858 9.14768 29.4761 9.72307 31.8885 9.99376L32.1115 8.00624C29.6612 7.73129 23.3083 7.14992 17.4342 7.01809L17.3893 9.01759Z" fill="#3F3715"/>
</svg>
