<svg width="529" height="208" viewBox="0 0 529 208" fill="none" xmlns="http://www.w3.org/2000/svg">
<path d="M190.941 36L198 47.2653H188V36H190.941Z" fill="#201F1B"/>
<path d="M190.941 174L198 163.861H188V174H190.941Z" fill="#201F1B"/>
<path d="M190.941 36L198 47.2653H188V36H190.941Z" stroke="#201F1B" stroke-width="6"/>
<path d="M190.941 174L198 163.861H188V174H190.941Z" stroke="#201F1B" stroke-width="6"/>
<rect x="56" y="54" width="193" height="103" rx="40" stroke="#201F1B" stroke-width="8"/>
<path d="M249.022 104.992C370.5 104.992 351.5 36.9988 478 36.9986" stroke="#201F1B" stroke-width="8"/>
<path d="M249.022 104.992C370.499 105.265 351.346 72.2515 477.845 72.5359" stroke="#201F1B" stroke-width="8"/>
<path d="M249 105.997C370.478 105.997 351.478 173.991 477.978 173.991" stroke="#201F1B" stroke-width="8"/>
<path d="M249 105.997C370.476 105.72 351.321 138.147 477.82 137.858" stroke="#201F1B" stroke-width="8"/>
<line x1="245.017" y1="104.999" x2="478.017" y2="105.999" stroke="#201F1B" stroke-width="8"/>
<line y1="4" x2="528.024" y2="4" stroke="#201F1B" stroke-width="8"/>
<line y1="204" x2="528.024" y2="204" stroke="#201F1B" stroke-width="8"/>
</svg>
