<svg width="291" height="278" viewBox="0 0 291 278" fill="none" xmlns="http://www.w3.org/2000/svg">
<path d="M22.8781 243.216C29.0761 139.095 203.238 34.1208 271.33 57.5033" stroke="#201F1B" stroke-width="8"/>
<path d="M117.52 152.395L104.607 153.662L89.2997 184.529L82.7967 190.61L90.2481 198.579L98.8362 194.569L105.193 199.54L131.207 182.109L142.373 186.604L152.719 179.227L147.202 168.875L160.975 159.443L180.879 148.3L196.199 150.059L205.562 144.176L203.863 135.999L221.894 126.032L230.675 131.608L252.869 105.11L252.887 80.9656L239.644 85.88L235.396 74.342L226.35 79.9286L222.491 72.6222L209.699 80.5621L207.459 88.976L190.983 98.0629L183.195 96.7285L156.232 121.942L151.073 116.425L143.533 117.263L129.892 130.018L129.892 140.827L117.52 152.395Z" stroke="#201F1B" stroke-width="8"/>
<path d="M128.799 197.53L124.713 199.095L117.347 208.802L125.046 207.803L134.577 204.808L139.469 196.852L135.921 194.815L128.799 197.53Z" stroke="#201F1B" stroke-width="6"/>
</svg>
