<svg width="67" height="68" viewBox="0 0 67 68" fill="none" xmlns="http://www.w3.org/2000/svg">
<path d="M63.2639 46.2476L49.1193 59.2449L37.8603 46.1157L44.6472 39.8793L52.118 33.0145L63.2639 46.2476Z" fill="#F6F6F6"/>
<path d="M36.3835 16.6311L21.9098 29.9309L10.837 16.8154L24.9816 3.81813L36.3835 16.6311Z" fill="#F6F6F6"/>
<path d="M56.9329 24.0924C58.1576 25.451 58.0552 27.5589 56.7041 28.8004L32.5903 50.9583C31.2392 52.1997 29.1511 52.1048 27.9264 50.7461L17.1555 38.7972C15.9308 37.4386 16.0332 35.3308 17.3843 34.0893L41.4981 11.9314C42.8492 10.6899 44.9373 10.7849 46.162 12.1435L56.9329 24.0924Z" fill="#F6F6F6"/>
<path d="M2.73717 42.6588C1.09283 55.5012 12.3759 66.1694 23.0732 64.9339M12.2946 43.6006C12.0509 50.6019 17.0031 55.7594 23.7161 55.8919M63.2639 46.2476L49.1193 59.2449L37.8603 46.1157L44.6472 39.8793L52.118 33.0145L63.2639 46.2476ZM36.3835 16.6311L21.9098 29.9309L10.837 16.8154L24.9816 3.81813L36.3835 16.6311ZM41.4981 11.9314L17.3843 34.0893C16.0332 35.3308 15.9308 37.4386 17.1555 38.7972L27.9264 50.7461C29.1511 52.1048 31.2392 52.1997 32.5903 50.9583L56.7041 28.8004C58.0552 27.5589 58.1576 25.451 56.9329 24.0924L46.162 12.1435C44.9373 10.7849 42.8492 10.6899 41.4981 11.9314Z" stroke="black" stroke-width="4" stroke-linecap="round"/>
</svg>
