<svg width="139" height="138" viewBox="0 0 139 138" fill="none" xmlns="http://www.w3.org/2000/svg">
<path d="M95.3215 133.255C122.428 131.156 139.568 103.141 132.48 81.4531M93.1955 113C107.696 110.5 116.196 98 113.614 84.0001M76.9729 6L109.711 29.7978L87.5 58.8201L71.7914 47.4013L54.5 34.8319L76.9729 6ZM27.5 74.5469L61 98.8986L38.7381 127.528L6 103.73L27.5 74.5469ZM15.6621 65.9418L71.4744 106.513C74.6015 108.786 78.9793 108.093 81.2524 104.966L101.244 77.4646C103.517 74.3375 102.825 69.9598 99.6976 67.6866L43.8853 27.1159C40.7582 24.8427 36.3804 25.535 34.1073 28.6621L14.1159 56.1638C11.8428 59.2909 12.535 63.6687 15.6621 65.9418Z" stroke="#201F1B" stroke-width="8" stroke-linecap="round"/>
</svg>
